<svg xmlns="http://www.w3.org/2000/svg" viewBox="0 0 24 24" fill="white"><path d="M4.105 4.105S9.158 1.58 11.684.316a3.079 3.079 0 0 1 1.481-.315c.766.047 1.677.788 1.677.788L24 9.948v9.789h-4.263V24H9.789l-9-9C.303 14.5 0 13.795 0 13.105c0-.319.18-.818.316-1.105l3.789-7.895zm.679.679v11.787c.002.543.021 1.024.498 1.508L10.204 23h8.533v-4.263h4.263V10.79L13.42 1.208c-.452-.436-.94-.499-1.458-.499-.332 0-.692.043-.803.088L4.784 4.784z"/><path d="M12.158 5.368l-1.105 1.105 4.263 4.263v2.105l-3.368 3.368 1.105 1.105 4.263-4.263V9.632z"/></svg>
